<?xml version="1.0" encoding="UTF-8"?>
<svg xmlns="http://www.w3.org/2000/svg" xmlns:xlink="http://www.w3.org/1999/xlink" width="512px" height="512px" viewBox="0 0 512 512" version="1.1">
<g id="surface1">
<path style=" stroke:none;fill-rule:nonzero;fill:rgb(0%,0%,0%);fill-opacity:1;" d="M 265.40625 0.832031 C 241.132812 3.449219 218.792969 12.847656 192.335938 31.644531 C 164.453125 51.507812 150.59375 64.953125 139.84375 82.796875 C 127.242188 103.851562 118.675781 127.761719 113.386719 156.667969 C 112.546875 161.546875 112.292969 161.785156 109.355469 161.785156 C 101.125 161.785156 75.589844 169.636719 62.570312 176.058594 C 38.132812 188.191406 18.5625 208.179688 9.070312 230.304688 C -0.925781 253.382812 -2.351562 281.457031 4.789062 311.910156 C 14.195312 352.117188 34.6875 375.910156 65.679688 382.453125 C 74.582031 384.355469 88.523438 384.714844 97.847656 383.167969 C 101.125 382.574219 103.8125 382.335938 103.980469 382.453125 C 104.0625 382.574219 105.660156 408.625 107.507812 440.269531 C 109.691406 478.574219 111.203125 499.035156 112.042969 501.53125 C 113.636719 506.410156 117.585938 508.789062 121.195312 507.003906 C 122.707031 506.289062 126.570312 504.386719 129.847656 502.722656 C 136.398438 499.507812 146.898438 497.011719 162.941406 494.632812 C 176.292969 492.730469 238.613281 492.730469 263.726562 494.75 C 306.394531 498.082031 342.171875 502.007812 384.925781 508.074219 C 413.144531 512 414.234375 512 416.757812 505.8125 C 417.765625 503.433594 419.109375 486.898438 422.132812 443.71875 C 424.316406 411.359375 426.164062 384.714844 426.332031 384.476562 C 426.414062 384.238281 429.941406 383.046875 434.140625 381.859375 C 460.851562 374.125 486.132812 353.785156 499.234375 329.636719 C 507.210938 315.003906 511.410156 297.277344 512.085938 275.984375 C 514.015625 216.863281 491.675781 170.585938 447.664062 142.273438 C 438.929688 136.683594 423.476562 129.425781 414.402344 126.691406 L 407.601562 124.550781 L 406.59375 118.484375 C 403.90625 101.472656 395.925781 79.464844 386.773438 63.40625 C 370.898438 35.6875 344.273438 14.511719 313.699219 5.472656 C 297.996094 0.832031 280.691406 -0.832031 265.40625 0.832031 Z M 297.742188 33.308594 C 340.578125 40.328125 371.652344 67.449219 386.773438 110.988281 C 401.554688 153.457031 392.734375 187.597656 364.347656 198.660156 C 352 203.421875 343.347656 205.085938 316.640625 207.941406 L 308.660156 208.890625 L 317.480469 210.4375 C 348.976562 215.910156 374.507812 212.222656 387.695312 200.089844 C 392.988281 195.09375 400.042969 185.21875 401.636719 180.222656 C 402.8125 176.652344 404.914062 176.417969 414.992188 179.152344 C 439.265625 185.578125 457.070312 197.589844 470.507812 216.625 C 475.714844 224 477.648438 227.925781 480.839844 237.085938 C 488.988281 260.757812 490.164062 289.191406 483.695312 307.035156 C 474.289062 333.203125 447.410156 356.996094 418.269531 365.203125 C 411.296875 367.109375 405.585938 366.871094 393.070312 364.253906 C 320.253906 348.550781 229.964844 344.386719 156.554688 353.308594 C 138.078125 355.570312 113.132812 359.730469 109.605469 361.160156 C 106.835938 362.347656 104.316406 366.394531 103.8125 370.675781 C 103.222656 374.601562 103.140625 374.601562 99.695312 374.125 C 97.765625 373.886719 92.640625 373.292969 88.441406 372.9375 C 60.640625 370.796875 37.878906 353.070312 29.058594 326.78125 C 24.945312 314.527344 23.515625 305.84375 22.929688 290.855469 C 22.257812 272.179688 24.609375 261.234375 31.832031 249.578125 C 43.421875 231.019531 67.277344 219.480469 99.527344 216.980469 L 109.941406 216.148438 L 110.277344 219.003906 C 110.53125 220.550781 111.371094 226.972656 112.125 233.160156 C 118.675781 283.121094 140.933594 321.546875 171.339844 335.226562 C 181.835938 339.984375 183.097656 339.507812 174.949219 333.800781 C 149.921875 316.667969 133.964844 287.40625 127.578125 247.554688 C 125.144531 232.328125 124.640625 207.109375 126.320312 190.691406 C 130.6875 148.816406 144.964844 111.464844 164.789062 90.050781 C 180.15625 73.515625 212.828125 50.796875 234.246094 41.753906 C 253.984375 33.425781 278.339844 30.214844 297.742188 33.308594 Z M 270.195312 372.34375 C 308.746094 374.007812 346.539062 378.289062 379.882812 384.832031 C 411.714844 391.136719 409.027344 390.304688 409.027344 393.039062 C 409.027344 396.371094 403.066406 484.402344 402.730469 486.066406 C 402.5625 486.898438 398.195312 486.660156 388.285156 485.234375 C 323.023438 475.597656 256.335938 469.886719 208.042969 469.886719 C 170.5 469.886719 147.402344 472.269531 132.03125 477.738281 C 129.09375 478.808594 126.570312 479.40625 126.402344 479.167969 C 126.234375 478.929688 124.890625 458.707031 123.546875 434.199219 C 122.121094 409.695312 120.777344 387.925781 120.609375 385.902344 L 120.273438 382.097656 L 127.496094 380.789062 C 141.605469 378.171875 169.492188 374.839844 188.136719 373.53125 C 223.578125 371.152344 237.4375 370.914062 270.195312 372.34375 Z M 270.195312 372.34375 "/>
</g>
</svg>
